<svg xmlns="http://www.w3.org/2000/svg" fill="none" viewBox="0 0 128 128">
       <path
        fill-rule="evenodd"
        clip-rule="evenodd"
        d="M6.98235 0.0241119C7.90125 0.180484 8.5348 1.05462 8.39743 1.97654L8.05296 4.28843C9.69102 3.34228 11.5247 2.6708 13.502 2.34656C22.2798 0.907088 30.5625 6.85598 32.002 15.6338C33.4414 24.4116 27.4925 32.6943 18.7147 34.1338C9.93695 35.5732 1.65422 29.6243 0.214755 20.8466C-0.588847 15.9462 0.910192 11.2002 3.91859 7.71296L1.28382 6.5012C0.389227 6.08977 -0.0378177 5.01578 0.329993 4.10238L0.329996 4.10237C0.697806 3.18897 1.72119 2.78205 2.61579 3.19348L4.66379 4.13538L5.06983 1.41027C5.2072 0.488342 6.06346 -0.13226 6.98235 0.0241119ZM7.84863 14.8783L22.8618 12.4163C25.3983 12.0003 27.7917 13.7194 28.2077 16.2559C28.6237 18.7924 26.9046 21.1859 24.3681 21.6018L9.35497 24.0638C6.81845 24.4798 4.42499 22.7608 4.00903 20.2242C3.59306 17.6877 5.31211 15.2943 7.84863 14.8783ZM24.1449 18.5172C23.7174 18.8529 23.0986 18.7783 22.763 18.3507L21.5083 16.7524L20.2457 18.39C19.9138 18.8205 19.2958 18.9004 18.8653 18.5685C18.4348 18.2366 18.3548 17.6185 18.6868 17.188L20.6734 14.6113C20.7972 14.4507 20.9608 14.3389 21.1397 14.2791C21.5398 14.1069 22.0208 14.2171 22.3024 14.5759L24.3114 17.1352C24.6471 17.5628 24.5725 18.1816 24.1449 18.5172ZM8.61139 20.5561C8.35 21.0327 7.75172 21.2072 7.27509 20.9458C6.79846 20.6845 6.62397 20.0862 6.88536 19.6096L8.44982 16.7568C8.66919 16.3567 9.12584 16.1695 9.54874 16.2742C9.73485 16.3041 9.91441 16.3877 10.0627 16.5258L12.4431 18.7439C12.8408 19.1144 12.8628 19.7372 12.4922 20.135C12.1217 20.5327 11.4988 20.5547 11.1011 20.1841L9.58839 18.7746L8.61139 20.5561Z" />
    <style>
        path { fill: #f2f2f200; }
        @media (prefers-color-scheme: dark) {
            path { fill: #f6f6f9; }
        }
    </style>
</svg>
